<svg width="250" height="159" viewBox="0 0 250 159" fill="none" xmlns="http://www.w3.org/2000/svg">
<path d="M125.049 158.026C137.286 158.026 148.868 156.521 159.796 153.511C170.789 150.566 180.932 146.673 190.224 141.83C199.516 136.923 207.826 131.557 215.155 125.733C222.549 119.844 228.831 113.954 234.001 108.065C239.17 102.11 243.129 96.6138 245.878 91.5752C248.626 86.5366 250 82.4468 250 79.3059C250 76.2303 248.626 72.1733 245.878 67.1347C243.129 62.0961 239.17 56.6321 234.001 50.7428C228.831 44.7881 222.549 38.8988 215.155 33.075C207.761 27.1857 199.385 21.8199 190.027 16.9776C180.736 12.0699 170.626 8.14372 159.698 5.19908C148.835 2.189 137.286 0.68396 125.049 0.68396C112.943 0.68396 101.427 2.189 90.4986 5.19908C79.6362 8.14372 69.559 12.0699 60.267 16.9776C50.975 21.8199 42.5991 27.1857 35.1394 33.075C27.7451 38.8988 21.4304 44.7881 16.1955 50.7428C10.9606 56.6321 6.93626 62.0961 4.1225 67.1347C1.37417 72.1733 0 76.2303 0 79.3059C0 82.4468 1.37417 86.5366 4.1225 91.5752C6.93626 96.6138 10.9606 102.11 16.1955 108.065C21.4304 113.954 27.7451 119.844 35.1394 125.733C42.5991 131.557 50.975 136.923 60.267 141.83C69.559 146.673 79.6362 150.566 90.4986 153.511C101.427 156.521 112.943 158.026 125.049 158.026ZM125.049 130.935C115.43 130.935 106.727 128.58 98.9399 123.868C91.153 119.157 84.9365 112.907 80.2905 105.121C75.6446 97.3336 73.2888 88.7287 73.2234 79.3059C73.2234 69.7521 75.5137 61.0818 80.0942 53.2949C84.7402 45.5079 90.9894 39.3242 98.8418 34.7436C106.694 30.0976 115.43 27.7747 125.049 27.7747C134.537 27.7747 143.208 30.0976 151.06 34.7436C158.912 39.3242 165.162 45.5079 169.808 53.2949C174.454 61.0818 176.777 69.7521 176.777 79.3059C176.777 86.373 175.435 93.0148 172.752 99.2313C170.069 105.448 166.339 110.944 161.563 115.721C156.851 120.433 151.355 124.163 145.073 126.911C138.856 129.594 132.182 130.935 125.049 130.935Z" fill="black"/>
<path d="M125 104.342C125.251 104.342 125.55 104.274 125.898 104.138C126.265 104.002 126.584 103.838 126.854 103.644C131.953 100.365 136.385 96.9303 140.151 93.3409C143.917 89.732 146.834 86.0359 148.9 82.2524C150.967 78.4689 152 74.637 152 70.7565C152 68.3506 151.614 66.1484 150.841 64.15C150.088 62.1515 149.016 60.415 147.626 58.9404C146.254 57.4658 144.651 56.3308 142.817 55.5353C141.001 54.7398 139.021 54.342 136.878 54.342C134.232 54.342 131.895 55.0211 129.867 56.3793C127.839 57.7375 126.217 59.5516 125 61.8217C123.803 59.571 122.18 57.7666 120.133 56.4084C118.086 55.0308 115.749 54.342 113.122 54.342C110.979 54.342 108.989 54.7398 107.155 55.5353C105.32 56.3308 103.717 57.4658 102.345 58.9404C100.974 60.415 99.9024 62.1515 99.1298 64.15C98.3766 66.1484 98 68.3506 98 70.7565C98 74.637 99.0333 78.4689 101.1 82.2524C103.166 86.0359 106.083 89.732 109.849 93.3409C113.615 96.9303 118.047 100.365 123.146 103.644C123.416 103.838 123.725 104.002 124.073 104.138C124.421 104.274 124.73 104.342 125 104.342Z" fill="black"/>
</svg>
