<svg width="250" height="158" viewBox="0 0 250 158" fill="none" xmlns="http://www.w3.org/2000/svg">
<path d="M125.049 157.684C137.286 157.684 148.868 156.179 159.796 153.169C170.789 150.224 180.932 146.331 190.224 141.488C199.516 136.581 207.826 131.215 215.155 125.391C222.549 119.502 228.831 113.612 234.001 107.723C239.17 101.768 243.129 96.2718 245.878 91.2332C248.626 86.1945 250 82.1048 250 78.9638C250 75.8883 248.626 71.8312 245.878 66.7926C243.129 61.754 239.17 56.2901 234.001 50.4008C228.831 44.4461 222.549 38.5568 215.155 32.733C207.761 26.8437 199.385 21.4779 190.027 16.6356C180.736 11.7279 170.626 7.80167 159.698 4.85703C148.835 1.84696 137.286 0.341919 125.049 0.341919C112.943 0.341919 101.427 1.84696 90.4986 4.85703C79.6362 7.80167 69.559 11.7279 60.267 16.6356C50.975 21.4779 42.5991 26.8437 35.1394 32.733C27.7451 38.5568 21.4304 44.4461 16.1955 50.4008C10.9606 56.2901 6.93626 61.754 4.1225 66.7926C1.37417 71.8312 0 75.8883 0 78.9638C0 82.1048 1.37417 86.1945 4.1225 91.2332C6.93626 96.2718 10.9606 101.768 16.1955 107.723C21.4304 113.612 27.7451 119.502 35.1394 125.391C42.5991 131.215 50.975 136.581 60.267 141.488C69.559 146.331 79.6362 150.224 90.4986 153.169C101.427 156.179 112.943 157.684 125.049 157.684ZM125.049 130.593C115.43 130.593 106.727 128.237 98.9399 123.526C91.153 118.815 84.9365 112.565 80.2905 104.779C75.6446 96.9916 73.2888 88.3867 73.2234 78.9638C73.2234 69.4101 75.5137 60.7398 80.0942 52.9528C84.7402 45.1659 90.9894 38.9821 98.8418 34.4016C106.694 29.7556 115.43 27.4326 125.049 27.4326C134.537 27.4326 143.208 29.7556 151.06 34.4016C158.912 38.9821 165.162 45.1659 169.808 52.9528C174.454 60.7398 176.777 69.4101 176.777 78.9638C176.777 86.031 175.435 92.6728 172.752 98.8892C170.069 105.106 166.339 110.602 161.563 115.379C156.851 120.091 151.355 123.821 145.073 126.569C138.856 129.252 132.182 130.593 125.049 130.593Z" fill="#F7F7F7"/>
<path d="M110.174 100.132L142.389 67.7961L137.593 62.9735L105.41 95.3097L102.582 101.678C102.459 101.987 102.521 102.276 102.766 102.544C103.033 102.832 103.33 102.925 103.658 102.822L110.174 100.132ZM144.817 65.3848L147.645 62.6335C148.362 61.9121 148.731 61.1805 148.752 60.4386C148.793 59.6966 148.495 59.0062 147.86 58.3673L146.999 57.4708C146.364 56.8525 145.678 56.5743 144.94 56.6361C144.223 56.6979 143.505 57.0689 142.788 57.749L139.991 60.5313L144.817 65.3848Z" fill="#F7F7F7"/>
</svg>
