<svg width="250" height="159" viewBox="0 0 250 159" fill="none" xmlns="http://www.w3.org/2000/svg">
<path d="M125.049 158.052C137.286 158.052 148.868 156.547 159.796 153.537C170.789 150.592 180.932 146.699 190.224 141.856C199.516 136.949 207.826 131.583 215.155 125.759C222.549 119.87 228.831 113.98 234.001 108.091C239.17 102.136 243.129 96.6397 245.878 91.6011C248.626 86.5625 250 82.4727 250 79.3317C250 76.2562 248.626 72.1992 245.878 67.1606C243.129 62.122 239.17 56.658 234.001 50.7687C228.831 44.814 222.549 38.9247 215.155 33.1009C207.761 27.2116 199.385 21.8458 190.027 17.0035C180.736 12.0958 170.626 8.16959 159.698 5.22495C148.835 2.21488 137.286 0.709839 125.049 0.709839C112.943 0.709839 101.427 2.21488 90.4986 5.22495C79.6362 8.16959 69.559 12.0958 60.267 17.0035C50.975 21.8458 42.5991 27.2116 35.1394 33.1009C27.7451 38.9247 21.4304 44.814 16.1955 50.7687C10.9606 56.658 6.93626 62.122 4.1225 67.1606C1.37417 72.1992 0 76.2562 0 79.3317C0 82.4727 1.37417 86.5625 4.1225 91.6011C6.93626 96.6397 10.9606 102.136 16.1955 108.091C21.4304 113.98 27.7451 119.87 35.1394 125.759C42.5991 131.583 50.975 136.949 60.267 141.856C69.559 146.699 79.6362 150.592 90.4986 153.537C101.427 156.547 112.943 158.052 125.049 158.052ZM125.049 130.961C115.43 130.961 106.727 128.605 98.9399 123.894C91.153 119.183 84.9365 112.933 80.2905 105.146C75.6446 97.3595 73.2888 88.7546 73.2234 79.3317C73.2234 69.778 75.5137 61.1077 80.0942 53.3207C84.7402 45.5338 90.9894 39.3501 98.8418 34.7695C106.694 30.1235 115.43 27.8005 125.049 27.8005C134.537 27.8005 143.208 30.1235 151.06 34.7695C158.912 39.3501 165.162 45.5338 169.808 53.3207C174.454 61.1077 176.777 69.778 176.777 79.3317C176.777 86.3989 175.435 93.0407 172.752 99.2571C170.069 105.474 166.339 110.97 161.563 115.747C156.851 120.459 151.355 124.188 145.073 126.937C138.856 129.62 132.182 130.961 125.049 130.961Z" fill="#F7F7F7"/>
<path d="M106.449 103.026H142.551C143.93 103.026 145.016 102.714 145.81 102.09C146.603 101.485 147 100.644 147 99.5669C147 97.828 146.48 96.0135 145.441 94.1233C144.402 92.2143 142.901 90.4281 140.936 88.7648C138.971 87.1015 136.6 85.75 133.823 84.7105C131.065 83.652 127.957 83.1227 124.5 83.1227C121.024 83.1227 117.897 83.652 115.12 84.7105C112.362 85.75 110.001 87.1015 108.036 88.7648C106.09 90.4281 104.598 92.2143 103.559 94.1233C102.52 96.0135 102 97.828 102 99.5669C102 100.644 102.397 101.485 103.19 102.09C103.984 102.714 105.07 103.026 106.449 103.026ZM124.528 78.3313C126.436 78.3313 128.193 77.8115 129.799 76.7719C131.424 75.7323 132.727 74.3242 133.71 72.5474C134.692 70.7518 135.183 68.7388 135.183 66.5085C135.183 64.3348 134.692 62.388 133.71 60.6679C132.727 58.929 131.424 57.5587 129.799 56.5569C128.193 55.5362 126.436 55.0259 124.528 55.0259C122.62 55.0259 120.854 55.5362 119.229 56.5569C117.605 57.5776 116.301 58.9668 115.319 60.7246C114.336 62.4636 113.855 64.4104 113.873 66.5652C113.873 68.7577 114.355 70.7518 115.319 72.5474C116.301 74.3242 117.595 75.7323 119.201 76.7719C120.826 77.8115 122.601 78.3313 124.528 78.3313Z" fill="#F7F7F7"/>
</svg>
