<svg width="250" height="158" viewBox="0 0 250 158" fill="none" xmlns="http://www.w3.org/2000/svg">
<path d="M125.049 157.736C137.286 157.736 148.868 156.23 159.796 153.22C170.789 150.276 180.932 146.382 190.224 141.54C199.516 136.632 207.826 131.266 215.155 125.443C222.549 119.553 228.831 113.664 234.001 107.775C239.17 101.82 243.129 96.3234 245.878 91.2848C248.626 86.2462 250 82.1564 250 79.0155C250 75.9399 248.626 71.8829 245.878 66.8443C243.129 61.8057 239.17 56.3417 234.001 50.4524C228.831 44.4977 222.549 38.6084 215.155 32.7846C207.761 26.8953 199.385 21.5295 190.027 16.6872C180.736 11.7795 170.626 7.85331 159.698 4.90867C148.835 1.89859 137.286 0.393555 125.049 0.393555C112.943 0.393555 101.427 1.89859 90.4986 4.90867C79.6362 7.85331 69.559 11.7795 60.267 16.6872C50.975 21.5295 42.5991 26.8953 35.1394 32.7846C27.7451 38.6084 21.4304 44.4977 16.1955 50.4524C10.9606 56.3417 6.93626 61.8057 4.1225 66.8443C1.37417 71.8829 0 75.9399 0 79.0155C0 82.1564 1.37417 86.2462 4.1225 91.2848C6.93626 96.3234 10.9606 101.82 16.1955 107.775C21.4304 113.664 27.7451 119.553 35.1394 125.443C42.5991 131.266 50.975 136.632 60.267 141.54C69.559 146.382 79.6362 150.276 90.4986 153.22C101.427 156.23 112.943 157.736 125.049 157.736ZM125.049 130.645C115.43 130.645 106.727 128.289 98.9399 123.578C91.153 118.866 84.9365 112.617 80.2905 104.83C75.6446 97.0432 73.2888 88.4383 73.2234 79.0155C73.2234 69.4617 75.5137 60.7914 80.0942 53.0045C84.7402 45.2175 90.9894 39.0338 98.8418 34.4532C106.694 29.8072 115.43 27.4842 125.049 27.4842C134.537 27.4842 143.208 29.8072 151.06 34.4532C158.912 39.0338 165.162 45.2175 169.808 53.0045C174.454 60.7914 176.777 69.4617 176.777 79.0155C176.777 86.0826 175.435 92.7244 172.752 98.9409C170.069 105.157 166.339 110.654 161.563 115.431C156.851 120.142 151.355 123.872 145.073 126.62C138.856 129.303 132.182 130.645 125.049 130.645Z" fill="#F7F7F7"/>
<path d="M125.5 42.3677L129.279 64.7652L143.75 47.2577L135.824 68.5439L157.11 60.6177L139.603 75.0889L162 78.8677L139.603 82.6464L157.11 97.1177L135.824 89.1914L143.75 110.478L129.279 92.9702L125.5 115.368L121.721 92.9702L107.25 110.478L115.176 89.1914L93.8901 97.1177L111.397 82.6464L89 78.8677L111.397 75.0889L93.8901 60.6177L115.176 68.5439L107.25 47.2577L121.721 64.7652L125.5 42.3677Z" fill="#F7F7F7"/>
<circle cx="125" cy="79.3677" r="19" fill="#F7F7F7"/>
</svg>
