<svg width="250" height="158" viewBox="0 0 250 158" fill="none" xmlns="http://www.w3.org/2000/svg">
<path d="M125.049 157.368C137.286 157.368 148.868 155.863 159.796 152.853C170.789 149.908 180.932 146.015 190.224 141.172C199.516 136.265 207.826 130.899 215.155 125.075C222.549 119.186 228.831 113.296 234.001 107.407C239.17 101.452 243.129 95.9557 245.878 90.9171C248.626 85.8785 250 81.7887 250 78.6478C250 75.5723 248.626 71.5152 245.878 66.4766C243.129 61.438 239.17 55.974 234.001 50.0848C228.831 44.1301 222.549 38.2408 215.155 32.4169C207.761 26.5276 199.385 21.1619 190.027 16.3196C180.736 11.4118 170.626 7.48563 159.698 4.54099C148.835 1.53092 137.286 0.0258789 125.049 0.0258789C112.943 0.0258789 101.427 1.53092 90.4986 4.54099C79.6362 7.48563 69.559 11.4118 60.267 16.3196C50.975 21.1619 42.5991 26.5276 35.1394 32.4169C27.7451 38.2408 21.4304 44.1301 16.1955 50.0848C10.9606 55.974 6.93626 61.438 4.1225 66.4766C1.37417 71.5152 0 75.5723 0 78.6478C0 81.7887 1.37417 85.8785 4.1225 90.9171C6.93626 95.9557 10.9606 101.452 16.1955 107.407C21.4304 113.296 27.7451 119.186 35.1394 125.075C42.5991 130.899 50.975 136.265 60.267 141.172C69.559 146.015 79.6362 149.908 90.4986 152.853C101.427 155.863 112.943 157.368 125.049 157.368ZM125.049 130.277C115.43 130.277 106.727 127.921 98.9399 123.21C91.153 118.499 84.9365 112.249 80.2905 104.462C75.6446 96.6755 73.2888 88.0706 73.2234 78.6478C73.2234 69.0941 75.5137 60.4237 80.0942 52.6368C84.7402 44.8498 90.9894 38.6661 98.8418 34.0856C106.694 29.4396 115.43 27.1166 125.049 27.1166C134.537 27.1166 143.208 29.4396 151.06 34.0856C158.912 38.6661 165.162 44.8498 169.808 52.6368C174.454 60.4237 176.777 69.0941 176.777 78.6478C176.777 85.7149 175.435 92.3567 172.752 98.5732C170.069 104.79 166.339 110.286 161.563 115.063C156.851 119.775 151.355 123.504 145.073 126.253C138.856 128.936 132.182 130.277 125.049 130.277Z" fill="#F7F7F7"/>
<path d="M125 103.684C125.251 103.684 125.55 103.616 125.898 103.48C126.265 103.344 126.584 103.179 126.854 102.985C131.953 99.7063 136.385 96.2721 140.151 92.6827C143.917 89.0738 146.834 85.3777 148.9 81.5942C150.967 77.8107 152 73.9788 152 70.0983C152 67.6924 151.614 65.4902 150.841 63.4918C150.088 61.4933 149.016 59.7568 147.626 58.2822C146.254 56.8076 144.651 55.6726 142.817 54.8771C141.001 54.0816 139.021 53.6838 136.878 53.6838C134.232 53.6838 131.895 54.3629 129.867 55.7211C127.839 57.0793 126.217 58.8934 125 61.1635C123.803 58.9128 122.18 57.1084 120.133 55.7502C118.086 54.3726 115.749 53.6838 113.122 53.6838C110.979 53.6838 108.989 54.0816 107.155 54.8771C105.32 55.6726 103.717 56.8076 102.345 58.2822C100.974 59.7568 99.9024 61.4933 99.1298 63.4918C98.3766 65.4902 98 67.6924 98 70.0983C98 73.9788 99.0333 77.8107 101.1 81.5942C103.166 85.3777 106.083 89.0738 109.849 92.6827C113.615 96.2721 118.047 99.7063 123.146 102.985C123.416 103.179 123.725 103.344 124.073 103.48C124.421 103.616 124.73 103.684 125 103.684Z" fill="#F7F7F7"/>
</svg>
