<svg width="250" height="158" viewBox="0 0 250 158" fill="none" xmlns="http://www.w3.org/2000/svg">
<path d="M125.049 157.71C137.286 157.71 148.868 156.205 159.796 153.195C170.789 150.25 180.932 146.357 190.224 141.514C199.516 136.607 207.826 131.241 215.155 125.417C222.549 119.528 228.831 113.638 234.001 107.749C239.17 101.794 243.129 96.2978 245.878 91.2592C248.626 86.2206 250 82.1308 250 78.9898C250 75.9143 248.626 71.8572 245.878 66.8186C243.129 61.78 239.17 56.3161 234.001 50.4268C228.831 44.4721 222.549 38.5828 215.155 32.759C207.761 26.8697 199.385 21.5039 190.027 16.6616C180.736 11.7539 170.626 7.82768 159.698 4.88304C148.835 1.87296 137.286 0.36792 125.049 0.36792C112.943 0.36792 101.427 1.87296 90.4986 4.88304C79.6362 7.82768 69.559 11.7539 60.267 16.6616C50.975 21.5039 42.5991 26.8697 35.1394 32.759C27.7451 38.5828 21.4304 44.4721 16.1955 50.4268C10.9606 56.3161 6.93626 61.78 4.1225 66.8186C1.37417 71.8572 0 75.9143 0 78.9898C0 82.1308 1.37417 86.2206 4.1225 91.2592C6.93626 96.2978 10.9606 101.794 16.1955 107.749C21.4304 113.638 27.7451 119.528 35.1394 125.417C42.5991 131.241 50.975 136.607 60.267 141.514C69.559 146.357 79.6362 150.25 90.4986 153.195C101.427 156.205 112.943 157.71 125.049 157.71ZM125.049 130.619C115.43 130.619 106.727 128.263 98.9399 123.552C91.153 118.841 84.9365 112.591 80.2905 104.805C75.6446 97.0176 73.2888 88.4127 73.2234 78.9898C73.2234 69.4361 75.5137 60.7658 80.0942 52.9788C84.7402 45.1919 90.9894 39.0081 98.8418 34.4276C106.694 29.7816 115.43 27.4586 125.049 27.4586C134.537 27.4586 143.208 29.7816 151.06 34.4276C158.912 39.0081 165.162 45.1919 169.808 52.9788C174.454 60.7658 176.777 69.4361 176.777 78.9898C176.777 86.057 175.435 92.6988 172.752 98.9152C170.069 105.132 166.339 110.628 161.563 115.405C156.851 120.117 151.355 123.847 145.073 126.595C138.856 129.278 132.182 130.619 125.049 130.619Z" fill="black"/>
<path d="M106.449 102.684H142.551C143.93 102.684 145.016 102.372 145.81 101.748C146.603 101.144 147 100.302 147 99.225C147 97.4861 146.48 95.6716 145.441 93.7814C144.402 91.8724 142.901 90.0862 140.936 88.4229C138.971 86.7596 136.6 85.4081 133.823 84.3685C131.065 83.3101 127.957 82.7808 124.5 82.7808C121.024 82.7808 117.897 83.3101 115.12 84.3685C112.362 85.4081 110.001 86.7596 108.036 88.4229C106.09 90.0862 104.598 91.8724 103.559 93.7814C102.52 95.6716 102 97.4861 102 99.225C102 100.302 102.397 101.144 103.19 101.748C103.984 102.372 105.07 102.684 106.449 102.684ZM124.528 77.9893C126.436 77.9893 128.193 77.4695 129.799 76.43C131.424 75.3904 132.727 73.9822 133.71 72.2055C134.692 70.4099 135.183 68.3969 135.183 66.1665C135.183 63.9929 134.692 62.046 133.71 60.326C132.727 58.5871 131.424 57.2167 129.799 56.215C128.193 55.1943 126.436 54.684 124.528 54.684C122.62 54.684 120.854 55.1943 119.229 56.215C117.605 57.2356 116.301 58.6249 115.319 60.3827C114.336 62.1216 113.855 64.0685 113.873 66.2232C113.873 68.4158 114.355 70.4099 115.319 72.2055C116.301 73.9822 117.595 75.3904 119.201 76.43C120.826 77.4695 122.601 77.9893 124.528 77.9893Z" fill="black"/>
</svg>
