<svg width="250" height="158" viewBox="0 0 250 158" fill="none" xmlns="http://www.w3.org/2000/svg">
<path d="M125.049 157.394C137.286 157.394 148.868 155.889 159.796 152.879C170.789 149.934 180.932 146.04 190.224 141.198C199.516 136.29 207.826 130.925 215.155 125.101C222.549 119.212 228.831 113.322 234.001 107.433C239.17 101.478 243.129 95.9816 245.878 90.943C248.626 85.9044 250 81.8146 250 78.6737C250 75.5981 248.626 71.5411 245.878 66.5025C243.129 61.4639 239.17 55.9999 234.001 50.1106C228.831 44.1559 222.549 38.2666 215.155 32.4428C207.761 26.5535 199.385 21.1877 190.027 16.3454C180.736 11.4377 170.626 7.51151 159.698 4.56687C148.835 1.5568 137.286 0.0517578 125.049 0.0517578C112.943 0.0517578 101.427 1.5568 90.4986 4.56687C79.6362 7.51151 69.559 11.4377 60.267 16.3454C50.975 21.1877 42.5991 26.5535 35.1394 32.4428C27.7451 38.2666 21.4304 44.1559 16.1955 50.1106C10.9606 55.9999 6.93626 61.4639 4.1225 66.5025C1.37417 71.5411 0 75.5981 0 78.6737C0 81.8146 1.37417 85.9044 4.1225 90.943C6.93626 95.9816 10.9606 101.478 16.1955 107.433C21.4304 113.322 27.7451 119.212 35.1394 125.101C42.5991 130.925 50.975 136.29 60.267 141.198C69.559 146.04 79.6362 149.934 90.4986 152.879C101.427 155.889 112.943 157.394 125.049 157.394ZM125.049 130.303C115.43 130.303 106.727 127.947 98.9399 123.236C91.153 118.524 84.9365 112.275 80.2905 104.488C75.6446 96.7014 73.2888 88.0965 73.2234 78.6737C73.2234 69.1199 75.5137 60.4496 80.0942 52.6627C84.7402 44.8757 90.9894 38.692 98.8418 34.1114C106.694 29.4654 115.43 27.1425 125.049 27.1425C134.537 27.1425 143.208 29.4654 151.06 34.1114C158.912 38.692 165.162 44.8757 169.808 52.6627C174.454 60.4496 176.777 69.1199 176.777 78.6737C176.777 85.7408 175.435 92.3826 172.752 98.5991C170.069 104.816 166.339 110.312 161.563 115.089C156.851 119.8 151.355 123.53 145.073 126.279C138.856 128.962 132.182 130.303 125.049 130.303Z" fill="black"/>
<path d="M125.5 42.0259L129.279 64.4234L143.75 46.916L135.824 68.2021L157.11 60.2759L139.603 74.7471L162 78.5259L139.603 82.3046L157.11 96.7759L135.824 88.8496L143.75 110.136L129.279 92.6284L125.5 115.026L121.721 92.6284L107.25 110.136L115.176 88.8496L93.8901 96.7759L111.397 82.3046L89 78.5259L111.397 74.7471L93.8901 60.2759L115.176 68.2021L107.25 46.916L121.721 64.4234L125.5 42.0259Z" fill="black"/>
<circle cx="125" cy="79.0259" r="19" fill="black"/>
</svg>
